<mxfile host="app.diagrams.net" modified="2023-04-09T10:24:09.563Z" agent="Mozilla/5.0 (Macintosh; Intel Mac OS X 10_15_7) AppleWebKit/537.36 (KHTML, like Gecko) Chrome/111.0.0.0 Safari/537.36" etag="jmrswllbbFflYRzUzQIr" version="21.1.1" type="github" pages="3">
  <diagram name="[16] node filter 1" id="pvWRUb3LcCW5VKSxuSDr">
    <mxGraphModel dx="638" dy="348" grid="0" gridSize="1" guides="1" tooltips="1" connect="1" arrows="1" fold="1" page="1" pageScale="1" pageWidth="827" pageHeight="1169" background="#4d5766" math="0" shadow="0">
      <root>
        <mxCell id="0RnKNHwAsUr9od3VfgU4-0" />
        <mxCell id="0RnKNHwAsUr9od3VfgU4-1" parent="0RnKNHwAsUr9od3VfgU4-0" />
        <mxCell id="0RnKNHwAsUr9od3VfgU4-38" value="&lt;font color=&quot;#ffffff&quot; style=&quot;font-size: 13px;&quot;&gt;node1&lt;/font&gt;" style="ellipse;whiteSpace=wrap;html=1;aspect=fixed;rounded=1;gradientColor=none;fontFamily=Google Sans;fontSize=13;fontColor=#BEC8D2;align=center;strokeColor=none;fillColor=#00C9FF;fontSource=https%3A%2F%2Ffonts.googleapis.com%2Fcss%3Ffamily%3DGoogle%2BSans;" parent="0RnKNHwAsUr9od3VfgU4-1" vertex="1">
          <mxGeometry x="243" y="397" width="50" height="50" as="geometry" />
        </mxCell>
        <mxCell id="6CZZYf4jvnfj5xoW1rf9-3" value="&lt;font color=&quot;#ffffff&quot; style=&quot;font-size: 13px;&quot;&gt;node2&lt;/font&gt;" style="ellipse;whiteSpace=wrap;html=1;aspect=fixed;rounded=1;gradientColor=none;fontFamily=Google Sans;fontSize=13;fontColor=#BEC8D2;align=center;strokeColor=none;fillColor=#00C9FF;fontSource=https%3A%2F%2Ffonts.googleapis.com%2Fcss%3Ffamily%3DGoogle%2BSans;" parent="0RnKNHwAsUr9od3VfgU4-1" vertex="1">
          <mxGeometry x="399" y="397" width="50" height="50" as="geometry" />
        </mxCell>
        <mxCell id="6CZZYf4jvnfj5xoW1rf9-4" value="&lt;font color=&quot;#ffffff&quot; style=&quot;font-size: 13px;&quot;&gt;node3&lt;/font&gt;" style="ellipse;whiteSpace=wrap;html=1;aspect=fixed;rounded=1;gradientColor=none;fontFamily=Google Sans;fontSize=13;fontColor=#BEC8D2;align=center;strokeColor=none;fillColor=#00C9FF;fontSource=https%3A%2F%2Ffonts.googleapis.com%2Fcss%3Ffamily%3DGoogle%2BSans;" parent="0RnKNHwAsUr9od3VfgU4-1" vertex="1">
          <mxGeometry x="243" y="520" width="50" height="50" as="geometry" />
        </mxCell>
        <mxCell id="6CZZYf4jvnfj5xoW1rf9-5" value="&lt;font color=&quot;#ffffff&quot; style=&quot;font-size: 13px;&quot;&gt;node4&lt;/font&gt;" style="ellipse;whiteSpace=wrap;html=1;aspect=fixed;rounded=1;gradientColor=none;fontFamily=Google Sans;fontSize=13;fontColor=#BEC8D2;align=center;strokeColor=none;fillColor=#00C9FF;fontSource=https%3A%2F%2Ffonts.googleapis.com%2Fcss%3Ffamily%3DGoogle%2BSans;" parent="0RnKNHwAsUr9od3VfgU4-1" vertex="1">
          <mxGeometry x="399" y="520" width="50" height="50" as="geometry" />
        </mxCell>
        <mxCell id="6CZZYf4jvnfj5xoW1rf9-6" style="edgeStyle=none;rounded=0;orthogonalLoop=1;jettySize=auto;html=1;entryX=1;entryY=0.5;entryDx=0;entryDy=0;startArrow=none;startFill=0;endArrow=none;endFill=0;strokeColor=#FFFFFF;strokeWidth=1;fontFamily=Manrope;fontSize=10;fontColor=#BEC8D2;" parent="0RnKNHwAsUr9od3VfgU4-1" source="6CZZYf4jvnfj5xoW1rf9-3" target="0RnKNHwAsUr9od3VfgU4-38" edge="1">
          <mxGeometry relative="1" as="geometry">
            <mxPoint x="572" y="308" as="sourcePoint" />
            <mxPoint x="556" y="286" as="targetPoint" />
          </mxGeometry>
        </mxCell>
        <mxCell id="6CZZYf4jvnfj5xoW1rf9-7" style="edgeStyle=none;rounded=0;orthogonalLoop=1;jettySize=auto;html=1;entryX=1;entryY=1;entryDx=0;entryDy=0;startArrow=none;startFill=0;endArrow=none;endFill=0;strokeColor=#FFFFFF;strokeWidth=1;fontFamily=Manrope;fontSize=10;fontColor=#BEC8D2;exitX=0;exitY=0;exitDx=0;exitDy=0;" parent="0RnKNHwAsUr9od3VfgU4-1" source="6CZZYf4jvnfj5xoW1rf9-5" target="0RnKNHwAsUr9od3VfgU4-38" edge="1">
          <mxGeometry relative="1" as="geometry">
            <mxPoint x="400" y="423" as="sourcePoint" />
            <mxPoint x="294" y="423" as="targetPoint" />
          </mxGeometry>
        </mxCell>
        <mxCell id="6CZZYf4jvnfj5xoW1rf9-8" style="edgeStyle=none;rounded=0;orthogonalLoop=1;jettySize=auto;html=1;entryX=0.5;entryY=1;entryDx=0;entryDy=0;startArrow=none;startFill=0;endArrow=none;endFill=0;strokeColor=#FFFFFF;strokeWidth=1;fontFamily=Manrope;fontSize=10;fontColor=#BEC8D2;exitX=0.5;exitY=0;exitDx=0;exitDy=0;" parent="0RnKNHwAsUr9od3VfgU4-1" source="6CZZYf4jvnfj5xoW1rf9-5" target="6CZZYf4jvnfj5xoW1rf9-3" edge="1">
          <mxGeometry relative="1" as="geometry">
            <mxPoint x="407" y="528" as="sourcePoint" />
            <mxPoint x="287" y="441" as="targetPoint" />
          </mxGeometry>
        </mxCell>
        <mxCell id="6CZZYf4jvnfj5xoW1rf9-9" style="edgeStyle=none;rounded=0;orthogonalLoop=1;jettySize=auto;html=1;entryX=0.5;entryY=1;entryDx=0;entryDy=0;startArrow=none;startFill=0;endArrow=none;endFill=0;strokeColor=#FFFFFF;strokeWidth=1;fontFamily=Manrope;fontSize=10;fontColor=#BEC8D2;exitX=0.5;exitY=0;exitDx=0;exitDy=0;" parent="0RnKNHwAsUr9od3VfgU4-1" source="6CZZYf4jvnfj5xoW1rf9-4" target="0RnKNHwAsUr9od3VfgU4-38" edge="1">
          <mxGeometry relative="1" as="geometry">
            <mxPoint x="425" y="521" as="sourcePoint" />
            <mxPoint x="425" y="448" as="targetPoint" />
          </mxGeometry>
        </mxCell>
        <mxCell id="6CZZYf4jvnfj5xoW1rf9-10" style="edgeStyle=none;rounded=0;orthogonalLoop=1;jettySize=auto;html=1;entryX=0;entryY=0.5;entryDx=0;entryDy=0;startArrow=none;startFill=0;endArrow=none;endFill=0;strokeColor=#FFFFFF;strokeWidth=1;fontFamily=Manrope;fontSize=10;fontColor=#BEC8D2;exitX=1;exitY=0.5;exitDx=0;exitDy=0;" parent="0RnKNHwAsUr9od3VfgU4-1" source="6CZZYf4jvnfj5xoW1rf9-4" target="6CZZYf4jvnfj5xoW1rf9-5" edge="1">
          <mxGeometry relative="1" as="geometry">
            <mxPoint x="269" y="521" as="sourcePoint" />
            <mxPoint x="269" y="448" as="targetPoint" />
          </mxGeometry>
        </mxCell>
        <mxCell id="6CZZYf4jvnfj5xoW1rf9-11" value="1" style="text;html=1;align=center;verticalAlign=middle;resizable=0;points=[];autosize=1;strokeColor=none;fillColor=none;fontFamily=Google Sans;fontSource=https%3A%2F%2Ffonts.googleapis.com%2Fcss%3Ffamily%3DGoogle%2BSans;fontColor=#FFFFFF;" parent="0RnKNHwAsUr9od3VfgU4-1" vertex="1">
          <mxGeometry x="285" y="401" width="23" height="26" as="geometry" />
        </mxCell>
        <mxCell id="6CZZYf4jvnfj5xoW1rf9-12" value="1" style="text;html=1;align=center;verticalAlign=middle;resizable=0;points=[];autosize=1;strokeColor=none;fillColor=none;fontFamily=Google Sans;fontSource=https%3A%2F%2Ffonts.googleapis.com%2Fcss%3Ffamily%3DGoogle%2BSans;fontColor=#FFFFFF;" parent="0RnKNHwAsUr9od3VfgU4-1" vertex="1">
          <mxGeometry x="379" y="401" width="23" height="26" as="geometry" />
        </mxCell>
        <mxCell id="6CZZYf4jvnfj5xoW1rf9-13" value="1" style="text;html=1;align=center;verticalAlign=middle;resizable=0;points=[];autosize=1;strokeColor=none;fillColor=none;fontFamily=Google Sans;fontSource=https%3A%2F%2Ffonts.googleapis.com%2Fcss%3Ffamily%3DGoogle%2BSans;fontColor=#FFFFFF;" parent="0RnKNHwAsUr9od3VfgU4-1" vertex="1">
          <mxGeometry x="382" y="523" width="23" height="26" as="geometry" />
        </mxCell>
        <mxCell id="6CZZYf4jvnfj5xoW1rf9-14" value="1" style="text;html=1;align=center;verticalAlign=middle;resizable=0;points=[];autosize=1;strokeColor=none;fillColor=none;fontFamily=Google Sans;fontSource=https%3A%2F%2Ffonts.googleapis.com%2Fcss%3Ffamily%3DGoogle%2BSans;fontColor=#FFFFFF;" parent="0RnKNHwAsUr9od3VfgU4-1" vertex="1">
          <mxGeometry x="285" y="523" width="23" height="26" as="geometry" />
        </mxCell>
        <mxCell id="6CZZYf4jvnfj5xoW1rf9-15" value="2" style="text;html=1;align=center;verticalAlign=middle;resizable=0;points=[];autosize=1;strokeColor=none;fillColor=none;fontFamily=Google Sans;fontSource=https%3A%2F%2Ffonts.googleapis.com%2Fcss%3Ffamily%3DGoogle%2BSans;fontColor=#FFFFFF;" parent="0RnKNHwAsUr9od3VfgU4-1" vertex="1">
          <mxGeometry x="248" y="441" width="24" height="26" as="geometry" />
        </mxCell>
        <mxCell id="6CZZYf4jvnfj5xoW1rf9-16" value="2" style="text;html=1;align=center;verticalAlign=middle;resizable=0;points=[];autosize=1;strokeColor=none;fillColor=none;fontFamily=Google Sans;fontSource=https%3A%2F%2Ffonts.googleapis.com%2Fcss%3Ffamily%3DGoogle%2BSans;fontColor=#FFFFFF;" parent="0RnKNHwAsUr9od3VfgU4-1" vertex="1">
          <mxGeometry x="248" y="497" width="24" height="26" as="geometry" />
        </mxCell>
        <mxCell id="6CZZYf4jvnfj5xoW1rf9-17" value="2" style="text;html=1;align=center;verticalAlign=middle;resizable=0;points=[];autosize=1;strokeColor=none;fillColor=none;fontFamily=Google Sans;fontSource=https%3A%2F%2Ffonts.googleapis.com%2Fcss%3Ffamily%3DGoogle%2BSans;fontColor=#FFFFFF;" parent="0RnKNHwAsUr9od3VfgU4-1" vertex="1">
          <mxGeometry x="405" y="441" width="24" height="26" as="geometry" />
        </mxCell>
        <mxCell id="6CZZYf4jvnfj5xoW1rf9-18" value="2" style="text;html=1;align=center;verticalAlign=middle;resizable=0;points=[];autosize=1;strokeColor=none;fillColor=none;fontFamily=Google Sans;fontSource=https%3A%2F%2Ffonts.googleapis.com%2Fcss%3Ffamily%3DGoogle%2BSans;fontColor=#FFFFFF;" parent="0RnKNHwAsUr9od3VfgU4-1" vertex="1">
          <mxGeometry x="405" y="500" width="24" height="26" as="geometry" />
        </mxCell>
        <mxCell id="6CZZYf4jvnfj5xoW1rf9-19" value="3" style="text;html=1;align=center;verticalAlign=middle;resizable=0;points=[];autosize=1;strokeColor=none;fillColor=none;fontFamily=Google Sans;fontSource=https%3A%2F%2Ffonts.googleapis.com%2Fcss%3Ffamily%3DGoogle%2BSans;fontColor=#FFFFFF;" parent="0RnKNHwAsUr9od3VfgU4-1" vertex="1">
          <mxGeometry x="386" y="500" width="24" height="26" as="geometry" />
        </mxCell>
        <mxCell id="6CZZYf4jvnfj5xoW1rf9-20" value="3" style="text;html=1;align=center;verticalAlign=middle;resizable=0;points=[];autosize=1;strokeColor=none;fillColor=none;fontFamily=Google Sans;fontSource=https%3A%2F%2Ffonts.googleapis.com%2Fcss%3Ffamily%3DGoogle%2BSans;fontColor=#FFFFFF;" parent="0RnKNHwAsUr9od3VfgU4-1" vertex="1">
          <mxGeometry x="285" y="427" width="24" height="26" as="geometry" />
        </mxCell>
      </root>
    </mxGraphModel>
  </diagram>
  <diagram name="[17] node filter 2" id="S00xAZIsclvElcWbYxQN">
    <mxGraphModel dx="1121" dy="611" grid="0" gridSize="1" guides="1" tooltips="1" connect="1" arrows="1" fold="1" page="1" pageScale="1" pageWidth="827" pageHeight="1169" background="#4d5766" math="0" shadow="0">
      <root>
        <mxCell id="hhincp3eESJt6npmsFU6-0" />
        <mxCell id="hhincp3eESJt6npmsFU6-1" parent="hhincp3eESJt6npmsFU6-0" />
        <mxCell id="hhincp3eESJt6npmsFU6-2" value="&lt;font color=&quot;#ffffff&quot; style=&quot;font-size: 13px;&quot;&gt;node1&lt;/font&gt;" style="ellipse;whiteSpace=wrap;html=1;aspect=fixed;rounded=1;gradientColor=none;fontFamily=Google Sans;fontSize=13;fontColor=#BEC8D2;align=center;strokeColor=none;fillColor=#00C9FF;fontSource=https%3A%2F%2Ffonts.googleapis.com%2Fcss%3Ffamily%3DGoogle%2BSans;" parent="hhincp3eESJt6npmsFU6-1" vertex="1">
          <mxGeometry x="243" y="397" width="50" height="50" as="geometry" />
        </mxCell>
        <mxCell id="hhincp3eESJt6npmsFU6-3" value="&lt;font color=&quot;#ffffff&quot; style=&quot;font-size: 13px;&quot;&gt;node2&lt;/font&gt;" style="ellipse;whiteSpace=wrap;html=1;aspect=fixed;rounded=1;gradientColor=none;fontFamily=Google Sans;fontSize=13;fontColor=#BEC8D2;align=center;strokeColor=none;fillColor=#00C9FF;fontSource=https%3A%2F%2Ffonts.googleapis.com%2Fcss%3Ffamily%3DGoogle%2BSans;" parent="hhincp3eESJt6npmsFU6-1" vertex="1">
          <mxGeometry x="399" y="397" width="50" height="50" as="geometry" />
        </mxCell>
        <mxCell id="hhincp3eESJt6npmsFU6-4" value="&lt;font style=&quot;font-size: 13px;&quot;&gt;node3&lt;/font&gt;" style="ellipse;whiteSpace=wrap;html=1;aspect=fixed;rounded=1;gradientColor=none;fontFamily=Google Sans;fontSize=13;fontColor=#495766;align=center;strokeColor=none;fillColor=#00C9FF;opacity=30;fontSource=https%3A%2F%2Ffonts.googleapis.com%2Fcss%3Ffamily%3DGoogle%2BSans;" parent="hhincp3eESJt6npmsFU6-1" vertex="1">
          <mxGeometry x="243" y="520" width="50" height="50" as="geometry" />
        </mxCell>
        <mxCell id="hhincp3eESJt6npmsFU6-5" value="&lt;font color=&quot;#ffffff&quot; style=&quot;font-size: 13px;&quot;&gt;node4&lt;/font&gt;" style="ellipse;whiteSpace=wrap;html=1;aspect=fixed;rounded=1;gradientColor=none;fontFamily=Google Sans;fontSize=13;fontColor=#BEC8D2;align=center;strokeColor=none;fillColor=#00C9FF;fontSource=https%3A%2F%2Ffonts.googleapis.com%2Fcss%3Ffamily%3DGoogle%2BSans;" parent="hhincp3eESJt6npmsFU6-1" vertex="1">
          <mxGeometry x="399" y="520" width="50" height="50" as="geometry" />
        </mxCell>
        <mxCell id="hhincp3eESJt6npmsFU6-6" style="edgeStyle=none;rounded=0;orthogonalLoop=1;jettySize=auto;html=1;entryX=1;entryY=0.5;entryDx=0;entryDy=0;startArrow=none;startFill=0;endArrow=none;endFill=0;strokeColor=#FFFFFF;strokeWidth=1;fontFamily=Manrope;fontSize=10;fontColor=#BEC8D2;" parent="hhincp3eESJt6npmsFU6-1" source="hhincp3eESJt6npmsFU6-3" target="hhincp3eESJt6npmsFU6-2" edge="1">
          <mxGeometry relative="1" as="geometry">
            <mxPoint x="572" y="308" as="sourcePoint" />
            <mxPoint x="556" y="286" as="targetPoint" />
          </mxGeometry>
        </mxCell>
        <mxCell id="hhincp3eESJt6npmsFU6-7" style="edgeStyle=none;rounded=0;orthogonalLoop=1;jettySize=auto;html=1;entryX=1;entryY=1;entryDx=0;entryDy=0;startArrow=none;startFill=0;endArrow=none;endFill=0;strokeColor=#FFFFFF;strokeWidth=1;fontFamily=Manrope;fontSize=10;fontColor=#BEC8D2;exitX=0;exitY=0;exitDx=0;exitDy=0;" parent="hhincp3eESJt6npmsFU6-1" source="hhincp3eESJt6npmsFU6-5" target="hhincp3eESJt6npmsFU6-2" edge="1">
          <mxGeometry relative="1" as="geometry">
            <mxPoint x="400" y="423" as="sourcePoint" />
            <mxPoint x="294" y="423" as="targetPoint" />
          </mxGeometry>
        </mxCell>
        <mxCell id="hhincp3eESJt6npmsFU6-8" style="edgeStyle=none;rounded=0;orthogonalLoop=1;jettySize=auto;html=1;entryX=0.5;entryY=1;entryDx=0;entryDy=0;startArrow=none;startFill=0;endArrow=none;endFill=0;strokeColor=#FFFFFF;strokeWidth=1;fontFamily=Manrope;fontSize=10;fontColor=#BEC8D2;exitX=0.5;exitY=0;exitDx=0;exitDy=0;" parent="hhincp3eESJt6npmsFU6-1" source="hhincp3eESJt6npmsFU6-5" target="hhincp3eESJt6npmsFU6-3" edge="1">
          <mxGeometry relative="1" as="geometry">
            <mxPoint x="407" y="528" as="sourcePoint" />
            <mxPoint x="287" y="441" as="targetPoint" />
          </mxGeometry>
        </mxCell>
        <mxCell id="hhincp3eESJt6npmsFU6-9" style="edgeStyle=none;rounded=0;orthogonalLoop=1;jettySize=auto;html=1;entryX=0.5;entryY=1;entryDx=0;entryDy=0;startArrow=none;startFill=0;endArrow=none;endFill=0;strokeColor=#CCCCCC;strokeWidth=1;fontFamily=Manrope;fontSize=10;fontColor=#BEC8D2;exitX=0.5;exitY=0;exitDx=0;exitDy=0;opacity=50;" parent="hhincp3eESJt6npmsFU6-1" source="hhincp3eESJt6npmsFU6-4" target="hhincp3eESJt6npmsFU6-2" edge="1">
          <mxGeometry relative="1" as="geometry">
            <mxPoint x="425" y="521" as="sourcePoint" />
            <mxPoint x="425" y="448" as="targetPoint" />
          </mxGeometry>
        </mxCell>
        <mxCell id="hhincp3eESJt6npmsFU6-10" style="edgeStyle=none;rounded=0;orthogonalLoop=1;jettySize=auto;html=1;entryX=0;entryY=0.5;entryDx=0;entryDy=0;startArrow=none;startFill=0;endArrow=none;endFill=0;strokeColor=#CCCCCC;strokeWidth=1;fontFamily=Manrope;fontSize=10;fontColor=#BEC8D2;exitX=1;exitY=0.5;exitDx=0;exitDy=0;opacity=50;" parent="hhincp3eESJt6npmsFU6-1" source="hhincp3eESJt6npmsFU6-4" target="hhincp3eESJt6npmsFU6-5" edge="1">
          <mxGeometry relative="1" as="geometry">
            <mxPoint x="269" y="521" as="sourcePoint" />
            <mxPoint x="269" y="448" as="targetPoint" />
          </mxGeometry>
        </mxCell>
        <mxCell id="hhincp3eESJt6npmsFU6-11" value="1" style="text;html=1;align=center;verticalAlign=middle;resizable=0;points=[];autosize=1;strokeColor=none;fillColor=none;fontFamily=Google Sans;fontSource=https%3A%2F%2Ffonts.googleapis.com%2Fcss%3Ffamily%3DGoogle%2BSans;fontColor=#FFFFFF;" parent="hhincp3eESJt6npmsFU6-1" vertex="1">
          <mxGeometry x="285" y="401" width="23" height="26" as="geometry" />
        </mxCell>
        <mxCell id="hhincp3eESJt6npmsFU6-12" value="1" style="text;html=1;align=center;verticalAlign=middle;resizable=0;points=[];autosize=1;strokeColor=none;fillColor=none;fontFamily=Google Sans;fontSource=https%3A%2F%2Ffonts.googleapis.com%2Fcss%3Ffamily%3DGoogle%2BSans;fontColor=#FFFFFF;" parent="hhincp3eESJt6npmsFU6-1" vertex="1">
          <mxGeometry x="379" y="401" width="23" height="26" as="geometry" />
        </mxCell>
        <mxCell id="hhincp3eESJt6npmsFU6-13" value="1" style="text;html=1;align=center;verticalAlign=middle;resizable=0;points=[];autosize=1;strokeColor=none;fillColor=none;fontFamily=Google Sans;fontSource=https%3A%2F%2Ffonts.googleapis.com%2Fcss%3Ffamily%3DGoogle%2BSans;fontColor=#CCCCCC;textOpacity=50;" parent="hhincp3eESJt6npmsFU6-1" vertex="1">
          <mxGeometry x="382" y="523" width="23" height="26" as="geometry" />
        </mxCell>
        <mxCell id="hhincp3eESJt6npmsFU6-14" value="1" style="text;html=1;align=center;verticalAlign=middle;resizable=0;points=[];autosize=1;strokeColor=none;fillColor=none;fontFamily=Google Sans;fontSource=https%3A%2F%2Ffonts.googleapis.com%2Fcss%3Ffamily%3DGoogle%2BSans;fontColor=#CCCCCC;textOpacity=50;" parent="hhincp3eESJt6npmsFU6-1" vertex="1">
          <mxGeometry x="285" y="523" width="23" height="26" as="geometry" />
        </mxCell>
        <mxCell id="hhincp3eESJt6npmsFU6-15" value="2" style="text;html=1;align=center;verticalAlign=middle;resizable=0;points=[];autosize=1;strokeColor=none;fillColor=none;fontFamily=Google Sans;fontSource=https%3A%2F%2Ffonts.googleapis.com%2Fcss%3Ffamily%3DGoogle%2BSans;fontColor=#CCCCCC;textOpacity=50;" parent="hhincp3eESJt6npmsFU6-1" vertex="1">
          <mxGeometry x="248" y="441" width="24" height="26" as="geometry" />
        </mxCell>
        <mxCell id="hhincp3eESJt6npmsFU6-16" value="2" style="text;html=1;align=center;verticalAlign=middle;resizable=0;points=[];autosize=1;strokeColor=none;fillColor=none;fontFamily=Google Sans;fontSource=https%3A%2F%2Ffonts.googleapis.com%2Fcss%3Ffamily%3DGoogle%2BSans;fontColor=#CCCCCC;textOpacity=50;" parent="hhincp3eESJt6npmsFU6-1" vertex="1">
          <mxGeometry x="248" y="497" width="24" height="26" as="geometry" />
        </mxCell>
        <mxCell id="hhincp3eESJt6npmsFU6-17" value="2" style="text;html=1;align=center;verticalAlign=middle;resizable=0;points=[];autosize=1;strokeColor=none;fillColor=none;fontFamily=Google Sans;fontSource=https%3A%2F%2Ffonts.googleapis.com%2Fcss%3Ffamily%3DGoogle%2BSans;fontColor=#FFFFFF;" parent="hhincp3eESJt6npmsFU6-1" vertex="1">
          <mxGeometry x="405" y="441" width="24" height="26" as="geometry" />
        </mxCell>
        <mxCell id="hhincp3eESJt6npmsFU6-18" value="2" style="text;html=1;align=center;verticalAlign=middle;resizable=0;points=[];autosize=1;strokeColor=none;fillColor=none;fontFamily=Google Sans;fontSource=https%3A%2F%2Ffonts.googleapis.com%2Fcss%3Ffamily%3DGoogle%2BSans;fontColor=#FFFFFF;" parent="hhincp3eESJt6npmsFU6-1" vertex="1">
          <mxGeometry x="405" y="500" width="24" height="26" as="geometry" />
        </mxCell>
        <mxCell id="hhincp3eESJt6npmsFU6-19" value="3" style="text;html=1;align=center;verticalAlign=middle;resizable=0;points=[];autosize=1;strokeColor=none;fillColor=none;fontFamily=Google Sans;fontSource=https%3A%2F%2Ffonts.googleapis.com%2Fcss%3Ffamily%3DGoogle%2BSans;fontColor=#FFFFFF;" parent="hhincp3eESJt6npmsFU6-1" vertex="1">
          <mxGeometry x="386" y="500" width="24" height="26" as="geometry" />
        </mxCell>
        <mxCell id="hhincp3eESJt6npmsFU6-20" value="3" style="text;html=1;align=center;verticalAlign=middle;resizable=0;points=[];autosize=1;strokeColor=none;fillColor=none;fontFamily=Google Sans;fontSource=https%3A%2F%2Ffonts.googleapis.com%2Fcss%3Ffamily%3DGoogle%2BSans;fontColor=#FFFFFF;" parent="hhincp3eESJt6npmsFU6-1" vertex="1">
          <mxGeometry x="285" y="427" width="24" height="26" as="geometry" />
        </mxCell>
        <mxCell id="PB9OCWHRpvLqLGvSzezC-0" value="--node-filter &lt;b&gt;node1&lt;/b&gt;,&lt;b&gt;node2&lt;/b&gt;,&lt;b&gt;node4&lt;/b&gt;" style="text;html=1;align=center;verticalAlign=middle;resizable=0;points=[];autosize=1;strokeColor=none;fillColor=none;fontFamily=Fira Code;fontSource=https%3A%2F%2Ffonts.googleapis.com%2Fcss%3Ffamily%3DFira%2BCode;fontColor=#FFFFFF;" parent="hhincp3eESJt6npmsFU6-1" vertex="1">
          <mxGeometry x="226" y="346" width="241" height="26" as="geometry" />
        </mxCell>
      </root>
    </mxGraphModel>
  </diagram>
  <diagram name="[18] node filter 3" id="W84hrAzT_lhGsKiqPfz2">
    <mxGraphModel dx="2074" dy="1131" grid="0" gridSize="1" guides="1" tooltips="1" connect="1" arrows="1" fold="1" page="1" pageScale="1" pageWidth="827" pageHeight="1169" background="#4d5766" math="0" shadow="0">
      <root>
        <mxCell id="aF0LSbfGYRAg3GMymmwZ-0" />
        <mxCell id="aF0LSbfGYRAg3GMymmwZ-1" parent="aF0LSbfGYRAg3GMymmwZ-0" />
        <mxCell id="aF0LSbfGYRAg3GMymmwZ-2" value="&lt;font color=&quot;#ffffff&quot; style=&quot;font-size: 13px;&quot;&gt;node1&lt;/font&gt;" style="ellipse;whiteSpace=wrap;html=1;aspect=fixed;rounded=1;gradientColor=none;fontFamily=Google Sans;fontSize=13;fontColor=#BEC8D2;align=center;strokeColor=none;fillColor=#00C9FF;fontSource=https%3A%2F%2Ffonts.googleapis.com%2Fcss%3Ffamily%3DGoogle%2BSans;" parent="aF0LSbfGYRAg3GMymmwZ-1" vertex="1">
          <mxGeometry x="243" y="397" width="50" height="50" as="geometry" />
        </mxCell>
        <mxCell id="aF0LSbfGYRAg3GMymmwZ-3" value="&lt;font color=&quot;#ffffff&quot; style=&quot;font-size: 13px;&quot;&gt;node2&lt;/font&gt;" style="ellipse;whiteSpace=wrap;html=1;aspect=fixed;rounded=1;gradientColor=none;fontFamily=Google Sans;fontSize=13;fontColor=#BEC8D2;align=center;strokeColor=none;fillColor=#00C9FF;fontSource=https%3A%2F%2Ffonts.googleapis.com%2Fcss%3Ffamily%3DGoogle%2BSans;" parent="aF0LSbfGYRAg3GMymmwZ-1" vertex="1">
          <mxGeometry x="399" y="397" width="50" height="50" as="geometry" />
        </mxCell>
        <mxCell id="aF0LSbfGYRAg3GMymmwZ-4" value="&lt;font style=&quot;font-size: 13px;&quot;&gt;node3&lt;/font&gt;" style="ellipse;whiteSpace=wrap;html=1;aspect=fixed;rounded=1;gradientColor=none;fontFamily=Google Sans;fontSize=13;fontColor=#495766;align=center;strokeColor=none;fillColor=#00C9FF;opacity=30;fontSource=https%3A%2F%2Ffonts.googleapis.com%2Fcss%3Ffamily%3DGoogle%2BSans;" parent="aF0LSbfGYRAg3GMymmwZ-1" vertex="1">
          <mxGeometry x="243" y="520" width="50" height="50" as="geometry" />
        </mxCell>
        <mxCell id="aF0LSbfGYRAg3GMymmwZ-5" value="&lt;font style=&quot;font-size: 13px;&quot;&gt;node4&lt;/font&gt;" style="ellipse;whiteSpace=wrap;html=1;aspect=fixed;rounded=1;gradientColor=none;fontFamily=Google Sans;fontSize=13;fontColor=#495766;align=center;strokeColor=none;fillColor=#00C9FF;opacity=30;fontSource=https%3A%2F%2Ffonts.googleapis.com%2Fcss%3Ffamily%3DGoogle%2BSans;" parent="aF0LSbfGYRAg3GMymmwZ-1" vertex="1">
          <mxGeometry x="399" y="520" width="50" height="50" as="geometry" />
        </mxCell>
        <mxCell id="aF0LSbfGYRAg3GMymmwZ-6" style="edgeStyle=none;rounded=0;orthogonalLoop=1;jettySize=auto;html=1;entryX=1;entryY=0.5;entryDx=0;entryDy=0;startArrow=none;startFill=0;endArrow=none;endFill=0;strokeColor=#FFFFFF;strokeWidth=1;fontFamily=Manrope;fontSize=10;fontColor=#BEC8D2;" parent="aF0LSbfGYRAg3GMymmwZ-1" source="aF0LSbfGYRAg3GMymmwZ-3" target="aF0LSbfGYRAg3GMymmwZ-2" edge="1">
          <mxGeometry relative="1" as="geometry">
            <mxPoint x="572" y="308" as="sourcePoint" />
            <mxPoint x="556" y="286" as="targetPoint" />
          </mxGeometry>
        </mxCell>
        <mxCell id="aF0LSbfGYRAg3GMymmwZ-7" style="edgeStyle=none;rounded=0;orthogonalLoop=1;jettySize=auto;html=1;entryX=1;entryY=1;entryDx=0;entryDy=0;startArrow=none;startFill=0;endArrow=none;endFill=0;strokeColor=#CCCCCC;strokeWidth=1;fontFamily=Manrope;fontSize=10;fontColor=#BEC8D2;exitX=0;exitY=0;exitDx=0;exitDy=0;opacity=50;" parent="aF0LSbfGYRAg3GMymmwZ-1" source="aF0LSbfGYRAg3GMymmwZ-5" target="aF0LSbfGYRAg3GMymmwZ-2" edge="1">
          <mxGeometry relative="1" as="geometry">
            <mxPoint x="400" y="423" as="sourcePoint" />
            <mxPoint x="294" y="423" as="targetPoint" />
          </mxGeometry>
        </mxCell>
        <mxCell id="aF0LSbfGYRAg3GMymmwZ-8" style="edgeStyle=none;rounded=0;orthogonalLoop=1;jettySize=auto;html=1;entryX=0.5;entryY=1;entryDx=0;entryDy=0;startArrow=none;startFill=0;endArrow=none;endFill=0;strokeColor=#CCCCCC;strokeWidth=1;fontFamily=Manrope;fontSize=10;fontColor=#BEC8D2;exitX=0.5;exitY=0;exitDx=0;exitDy=0;opacity=50;" parent="aF0LSbfGYRAg3GMymmwZ-1" source="aF0LSbfGYRAg3GMymmwZ-5" target="aF0LSbfGYRAg3GMymmwZ-3" edge="1">
          <mxGeometry relative="1" as="geometry">
            <mxPoint x="407" y="528" as="sourcePoint" />
            <mxPoint x="287" y="441" as="targetPoint" />
          </mxGeometry>
        </mxCell>
        <mxCell id="aF0LSbfGYRAg3GMymmwZ-9" style="edgeStyle=none;rounded=0;orthogonalLoop=1;jettySize=auto;html=1;entryX=0.5;entryY=1;entryDx=0;entryDy=0;startArrow=none;startFill=0;endArrow=none;endFill=0;strokeColor=#CCCCCC;strokeWidth=1;fontFamily=Manrope;fontSize=10;fontColor=#BEC8D2;exitX=0.5;exitY=0;exitDx=0;exitDy=0;opacity=50;" parent="aF0LSbfGYRAg3GMymmwZ-1" source="aF0LSbfGYRAg3GMymmwZ-4" target="aF0LSbfGYRAg3GMymmwZ-2" edge="1">
          <mxGeometry relative="1" as="geometry">
            <mxPoint x="425" y="521" as="sourcePoint" />
            <mxPoint x="425" y="448" as="targetPoint" />
          </mxGeometry>
        </mxCell>
        <mxCell id="aF0LSbfGYRAg3GMymmwZ-10" style="edgeStyle=none;rounded=0;orthogonalLoop=1;jettySize=auto;html=1;entryX=0;entryY=0.5;entryDx=0;entryDy=0;startArrow=none;startFill=0;endArrow=none;endFill=0;strokeColor=#CCCCCC;strokeWidth=1;fontFamily=Manrope;fontSize=10;fontColor=#BEC8D2;exitX=1;exitY=0.5;exitDx=0;exitDy=0;opacity=50;" parent="aF0LSbfGYRAg3GMymmwZ-1" source="aF0LSbfGYRAg3GMymmwZ-4" target="aF0LSbfGYRAg3GMymmwZ-5" edge="1">
          <mxGeometry relative="1" as="geometry">
            <mxPoint x="269" y="521" as="sourcePoint" />
            <mxPoint x="269" y="448" as="targetPoint" />
          </mxGeometry>
        </mxCell>
        <mxCell id="aF0LSbfGYRAg3GMymmwZ-11" value="1" style="text;html=1;align=center;verticalAlign=middle;resizable=0;points=[];autosize=1;strokeColor=none;fillColor=none;fontFamily=Google Sans;fontSource=https%3A%2F%2Ffonts.googleapis.com%2Fcss%3Ffamily%3DGoogle%2BSans;fontColor=#FFFFFF;" parent="aF0LSbfGYRAg3GMymmwZ-1" vertex="1">
          <mxGeometry x="285" y="401" width="23" height="26" as="geometry" />
        </mxCell>
        <mxCell id="aF0LSbfGYRAg3GMymmwZ-12" value="1" style="text;html=1;align=center;verticalAlign=middle;resizable=0;points=[];autosize=1;strokeColor=none;fillColor=none;fontFamily=Google Sans;fontSource=https%3A%2F%2Ffonts.googleapis.com%2Fcss%3Ffamily%3DGoogle%2BSans;fontColor=#FFFFFF;" parent="aF0LSbfGYRAg3GMymmwZ-1" vertex="1">
          <mxGeometry x="379" y="401" width="23" height="26" as="geometry" />
        </mxCell>
        <mxCell id="aF0LSbfGYRAg3GMymmwZ-13" value="1" style="text;html=1;align=center;verticalAlign=middle;resizable=0;points=[];autosize=1;strokeColor=none;fillColor=none;fontFamily=Google Sans;fontSource=https%3A%2F%2Ffonts.googleapis.com%2Fcss%3Ffamily%3DGoogle%2BSans;fontColor=#CCCCCC;textOpacity=50;" parent="aF0LSbfGYRAg3GMymmwZ-1" vertex="1">
          <mxGeometry x="382" y="523" width="23" height="26" as="geometry" />
        </mxCell>
        <mxCell id="aF0LSbfGYRAg3GMymmwZ-14" value="1" style="text;html=1;align=center;verticalAlign=middle;resizable=0;points=[];autosize=1;strokeColor=none;fillColor=none;fontFamily=Google Sans;fontSource=https%3A%2F%2Ffonts.googleapis.com%2Fcss%3Ffamily%3DGoogle%2BSans;fontColor=#CCCCCC;textOpacity=50;" parent="aF0LSbfGYRAg3GMymmwZ-1" vertex="1">
          <mxGeometry x="285" y="523" width="23" height="26" as="geometry" />
        </mxCell>
        <mxCell id="aF0LSbfGYRAg3GMymmwZ-15" value="2" style="text;html=1;align=center;verticalAlign=middle;resizable=0;points=[];autosize=1;strokeColor=none;fillColor=none;fontFamily=Google Sans;fontSource=https%3A%2F%2Ffonts.googleapis.com%2Fcss%3Ffamily%3DGoogle%2BSans;fontColor=#CCCCCC;textOpacity=50;" parent="aF0LSbfGYRAg3GMymmwZ-1" vertex="1">
          <mxGeometry x="248" y="441" width="24" height="26" as="geometry" />
        </mxCell>
        <mxCell id="aF0LSbfGYRAg3GMymmwZ-16" value="2" style="text;html=1;align=center;verticalAlign=middle;resizable=0;points=[];autosize=1;strokeColor=none;fillColor=none;fontFamily=Google Sans;fontSource=https%3A%2F%2Ffonts.googleapis.com%2Fcss%3Ffamily%3DGoogle%2BSans;fontColor=#CCCCCC;textOpacity=50;" parent="aF0LSbfGYRAg3GMymmwZ-1" vertex="1">
          <mxGeometry x="248" y="497" width="24" height="26" as="geometry" />
        </mxCell>
        <mxCell id="aF0LSbfGYRAg3GMymmwZ-17" value="2" style="text;html=1;align=center;verticalAlign=middle;resizable=0;points=[];autosize=1;strokeColor=none;fillColor=none;fontFamily=Google Sans;fontSource=https%3A%2F%2Ffonts.googleapis.com%2Fcss%3Ffamily%3DGoogle%2BSans;fontColor=#CCCCCC;textOpacity=50;" parent="aF0LSbfGYRAg3GMymmwZ-1" vertex="1">
          <mxGeometry x="405" y="441" width="24" height="26" as="geometry" />
        </mxCell>
        <mxCell id="aF0LSbfGYRAg3GMymmwZ-18" value="2" style="text;html=1;align=center;verticalAlign=middle;resizable=0;points=[];autosize=1;strokeColor=none;fillColor=none;fontFamily=Google Sans;fontSource=https%3A%2F%2Ffonts.googleapis.com%2Fcss%3Ffamily%3DGoogle%2BSans;fontColor=#CCCCCC;textOpacity=50;" parent="aF0LSbfGYRAg3GMymmwZ-1" vertex="1">
          <mxGeometry x="405" y="500" width="24" height="26" as="geometry" />
        </mxCell>
        <mxCell id="aF0LSbfGYRAg3GMymmwZ-19" value="3" style="text;html=1;align=center;verticalAlign=middle;resizable=0;points=[];autosize=1;strokeColor=none;fillColor=none;fontFamily=Google Sans;fontSource=https%3A%2F%2Ffonts.googleapis.com%2Fcss%3Ffamily%3DGoogle%2BSans;fontColor=#CCCCCC;textOpacity=50;" parent="aF0LSbfGYRAg3GMymmwZ-1" vertex="1">
          <mxGeometry x="386" y="500" width="24" height="26" as="geometry" />
        </mxCell>
        <mxCell id="aF0LSbfGYRAg3GMymmwZ-20" value="3" style="text;html=1;align=center;verticalAlign=middle;resizable=0;points=[];autosize=1;strokeColor=none;fillColor=none;fontFamily=Google Sans;fontSource=https%3A%2F%2Ffonts.googleapis.com%2Fcss%3Ffamily%3DGoogle%2BSans;fontColor=#CCCCCC;textOpacity=50;" parent="aF0LSbfGYRAg3GMymmwZ-1" vertex="1">
          <mxGeometry x="285" y="427" width="24" height="26" as="geometry" />
        </mxCell>
        <mxCell id="aF0LSbfGYRAg3GMymmwZ-21" value="--node-filter &lt;b&gt;node1&lt;/b&gt;,&lt;b&gt;node2&lt;/b&gt;" style="text;html=1;align=center;verticalAlign=middle;resizable=0;points=[];autosize=1;strokeColor=none;fillColor=none;fontFamily=Fira Code;fontSource=https%3A%2F%2Ffonts.googleapis.com%2Fcss%3Ffamily%3DFira%2BCode;fontColor=#FFFFFF;" parent="aF0LSbfGYRAg3GMymmwZ-1" vertex="1">
          <mxGeometry x="243" y="349" width="198" height="26" as="geometry" />
        </mxCell>
      </root>
    </mxGraphModel>
  </diagram>
</mxfile>
